<?xml version="1.0"?>
<svg xmlns:rdf="http://www.w3.org/1999/02/22-rdf-syntax-ns#" xmlns="http://www.w3.org/2000/svg" xmlns:cc="http://creativecommons.org/ns#" xmlns:xlink="http://www.w3.org/1999/xlink" xmlns:dc="http://purl.org/dc/elements/1.1/" xmlns:svg="http://www.w3.org/2000/svg" id="svg1" viewBox="0 0 218.36 220.37" version="1.0">
  <defs id="defs3">
    <radialGradient id="radialGradient2604" gradientUnits="userSpaceOnUse" cy="583.81" cx="9.9854" gradientTransform="scale(1.0566 .94642)" r="84.55">
      <stop id="stop1880" stop-color="#002723" offset="0"/>
      <stop id="stop1883" stop-opacity=".49804" offset="1"/>
      <stop id="stop1881" stop-color="#fff" stop-opacity="0" offset="1"/>
    </radialGradient>
  </defs>
  <g id="layer2" transform="translate(-26.146 -16.039)" display="block">
    <g id="g2587">
      <path id="path3155" d="m226.48 72.187c46.05 93.973-25.84 140.96-36.18 146.6 15.98-48.87 36.18-146.6 36.18-146.6z" fill-rule="evenodd" stroke="#e8e9e8" stroke-width="2.5" fill="#368c00"/>
      <path id="path3141" d="m84.722 154.8c-8.644-85.724 39.258-114.18 39.258-114.18-2.52-23.049-15.49-19.807-15.49-19.807-94.001 54.385-54.383 152.35-54.383 152.35l1.441 0.36c27.013-13.32 29.174-18.72 29.174-18.72z" fill-rule="evenodd" stroke="#b8b8b8" stroke-width="1.875" display="block" fill="#b32000"/>
      <path id="path3149" d="m53.387 175.33c-9.725 4.68-15.127 2.52-15.127 2.52-45.381-110.58 64.24-155.35 64.24-155.35 9.72-2.877 6.35-1.327 6.35-1.327-95.082 52.945-54.743 156.68-55.463 154.16z" fill-rule="evenodd" stroke="#b8b8b8" stroke-width="1.875" display="block" fill="#fff"/>
      <path id="path3151" d="m39.701 179.65c24.851-6.85 45.021-24.85 45.021-24.85 37.818 15.12 40.338 18.72 48.618 22.33-31.33 38.17-44.656 36.37-58.343 38.53-20.89-7.2-35.296-36.01-35.296-36.01z" fill-rule="evenodd" stroke="#b8b8b8" stroke-width="1.875" display="block" fill="#b32000"/>
      <path id="path3152" d="m75.717 216.38c34.933-4.68 52.943-41.05 57.623-39.97 36.02 15.48 30.62 14.04 30.62 14.04-33.86 54.39-42.86 42.86-42.86 42.86-26.654-2.52-45.383-16.93-45.383-16.93z" fill-rule="evenodd" stroke="#b8b8b8" stroke-width="1.875" display="block" fill="#fef"/>
      <path id="path3153" d="m165.4 189.73c33.86 14.77 28.81 10.45 31.69 13.69-4.32 35.3-75.99 29.53-75.99 29.53 39.26-30.61 44.3-43.22 44.3-43.22z" fill-rule="evenodd" stroke="#b8b8b8" stroke-width="1.875" display="block" fill="#368c00"/>
      <path id="path2515" d="m124.02 40.076c-4.34-22.709-11.3-19.241-10.3-20.243 40.74-3.674 48.42 3.005 48.42 3.005s1.66 2.885 1.78 2.855c12.69 22.709 4.9 23.862 4.9 23.862-41.41-11.021-39.04-7.138-44.8-9.479z" fill-rule="evenodd" stroke="#b8b8b8" stroke-width="1.875" fill="#368c00"/>
      <path id="path2516" d="m169 49.266c9.01-6.663-7.92-27.192-7.92-27.192 38.72 9.544 40.7 22.87 40.7 22.87-0.36 18.909-1.44 18.369-1.44 18.369-26.66-13.687-31.34-14.047-31.34-14.047z" fill-rule="evenodd" stroke="#b8b8b8" stroke-width="1.875" fill="#fffbff"/>
      <path id="path2517" d="m200.7 63.493c1.26-24.492 1.26-21.97 1.26-19.449 23.23 11.885 28.81 40.699 28.09 44.301-27.55-22.511-29.35-24.852-29.35-24.852z" fill-rule="evenodd" stroke="#b8b8b8" stroke-width="1.875" fill="#b40000"/>
      <path id="path1888" d="m85.507 155.03c-2.666-22.95-0.692-46.15 0.462-47.54 107.46 43.38 132.43 61.28 134.77 64.62l0.77-0.21c-15.23 34.16-28.46 29.29-28.46 29.29l-2.08-0.93c-84.92-34.84-100.16-41.31-105.46-45.23z" fill-rule="evenodd" stroke="#b8b8b8" stroke-width="1.875" fill="#fdffff"/>
      <path id="path2510" d="m85.84 106.49c1.93-15.807 10.229-30.154 10.229-30.154 110.77 13.385 138.15 59.614 137.78 60.554 1.38 8-0.57 13.01-2.74 20-2.16 7-5 11.98-9.71 15.51-4.75 3.57-132.56-63.14-135.56-65.91z" fill-rule="evenodd" stroke="#b8b8b8" stroke-width="1.875" fill="#fdffff"/>
      <path id="path2511" d="m95.864 76.753c15.656-26.844 27.746-35.185 27.746-35.185 87.69 10.154 106.36 47.692 106.36 47.692l-0.23-0.231c9.93 34.151 5.02 51.261 3.87 47.341-37.63-49.533-129.52-58.712-137.75-59.617z" fill-rule="evenodd" stroke="#b8b8b8" stroke-width="1.875" fill="#fdffff"/>
      <path id="path1245" opacity=".1342" d="m151.31 525.99a101.38 90.646 0 1 1 -0.2 -0.18" stroke-opacity="0" transform="matrix(1.0601 0 0 1.1967 49.349 -581.46)" display="block" fill="url(#radialGradient2604)"/>
      <path id="path3168" d="m105.25 104.14c92.1 31.95 116.53 58.26 116.53 58.26" stroke-opacity="0" fill="none"/>
    </g>
    <path id="text3158" opacity=".76623" d="m110.13 90.642l4.35 1.556-0.42 10.782 6.45-8.632 4.23 1.511-9.82 11.701-4.51-1.62-0.28-15.298m11.31 13.778c0.56-1.48 1.52-2.51 2.88-3.08 1.36-0.59 2.89-0.56 4.59 0.08 1.94 0.73 3.2 1.85 3.77 3.35 0.45 1.21 0.43 2.48-0.07 3.81-0.57 1.49-1.53 2.53-2.88 3.11s-2.89 0.54-4.64-0.13c-1.56-0.58-2.67-1.46-3.33-2.61-0.81-1.43-0.92-2.94-0.32-4.53m3.73 1.4c-0.33 0.87-0.39 1.57-0.2 2.12s0.56 0.92 1.09 1.12 1.05 0.16 1.54-0.12c0.51-0.27 0.93-0.86 1.27-1.76 0.31-0.84 0.38-1.53 0.18-2.07-0.19-0.55-0.54-0.92-1.05-1.11-0.54-0.21-1.07-0.16-1.58 0.12s-0.93 0.85-1.25 1.7m12.77-4.91l3.7 1.46-5.25 13.32-3.7-1.46 5.25-13.32m6.35 2.52l3.69 1.5-5.39 13.26-3.69-1.5 5.39-13.26m12.91 16.37l-7.33-3.13c-0.19 0.62-0.21 1.12-0.09 1.52 0.18 0.56 0.56 0.96 1.12 1.21 0.36 0.15 0.74 0.2 1.14 0.16 0.25-0.03 0.55-0.14 0.9-0.33l3.46 1.87c-0.96 0.72-1.92 1.13-2.88 1.22-0.95 0.08-2.16-0.19-3.61-0.81-1.27-0.54-2.18-1.14-2.76-1.8-0.57-0.67-0.93-1.49-1.08-2.47-0.14-0.98 0.01-1.99 0.46-3.04 0.63-1.49 1.62-2.5 2.97-3.01 1.35-0.52 2.87-0.42 4.55 0.3 1.37 0.58 2.36 1.25 2.97 2s0.96 1.61 1.04 2.57-0.15 2.07-0.69 3.32l-0.17 0.42m-2.97-3.34c0.23-0.74 0.25-1.33 0.07-1.76-0.18-0.44-0.52-0.76-1.02-0.98-0.58-0.25-1.14-0.21-1.69 0.1-0.34 0.19-0.66 0.56-0.97 1.1l3.61 1.54m6.26-1.96l3.82 1.74-0.92 7.17 4.67-5.47 3.56 1.62-8.33 8.39c-0.95 0.95-1.74 1.53-2.37 1.73-0.88 0.29-1.97 0.14-3.26-0.45-0.52-0.24-1.29-0.68-2.32-1.31l0.87-2.66c0.44 0.41 0.99 0.75 1.63 1.04 0.42 0.2 0.81 0.26 1.16 0.18 0.36-0.07 0.74-0.32 1.15-0.74l0.34-11.24m10.09 8.6l5.22 2.5-1.33 2.78-5.22-2.51 1.33-2.77m10.6-3.32l7.36 3.78c1.23 0.64 2.01 1.42 2.35 2.37 0.35 0.95 0.29 1.87-0.17 2.77-0.39 0.75-0.95 1.27-1.7 1.57-0.49 0.2-1.1 0.25-1.81 0.15 0.8 0.69 1.28 1.41 1.43 2.17 0.16 0.76 0.03 1.54-0.38 2.35-0.34 0.66-0.8 1.17-1.38 1.54s-1.21 0.57-1.9 0.6c-0.43 0.03-1-0.09-1.71-0.35-0.95-0.34-1.56-0.58-1.85-0.73l-6.79-3.49 6.55-12.73m1.4 7.03l1.71 0.88c0.61 0.32 1.09 0.43 1.43 0.34 0.36-0.08 0.64-0.33 0.84-0.73 0.19-0.37 0.22-0.72 0.08-1.05-0.13-0.33-0.49-0.65-1.08-0.96l-1.74-0.89-1.24 2.41m-2.58 5l2.01 1.03c0.68 0.35 1.21 0.48 1.61 0.39 0.41-0.1 0.71-0.36 0.92-0.76 0.2-0.38 0.21-0.75 0.05-1.12-0.15-0.37-0.57-0.73-1.26-1.09l-2-1.03-1.33 2.58m14.81 3.44l-3.1-2.23c0.45-0.5 0.89-0.85 1.31-1.05 0.43-0.2 0.93-0.29 1.51-0.28 0.42 0 0.93 0.12 1.54 0.34s1.23 0.51 1.88 0.88c1.03 0.59 1.83 1.12 2.39 1.6 0.56 0.47 0.95 1.01 1.16 1.62 0.14 0.42 0.17 0.91 0.07 1.48-0.09 0.56-0.26 1.05-0.5 1.48l-2.28 3.97c-0.24 0.43-0.4 0.78-0.49 1.05-0.08 0.27-0.14 0.64-0.17 1.12l-3.24-1.85c0-0.31 0.02-0.53 0.05-0.67 0.03-0.15 0.1-0.37 0.21-0.65-0.7 0.18-1.33 0.23-1.88 0.16-0.76-0.1-1.54-0.38-2.34-0.84-1.08-0.61-1.75-1.33-2.03-2.15-0.27-0.81-0.19-1.58 0.22-2.31 0.39-0.68 0.91-1.13 1.57-1.34 0.65-0.22 1.58-0.12 2.78 0.28 1.44 0.48 2.39 0.78 2.83 0.9 0.45 0.11 0.93 0.2 1.46 0.28 0.24-0.42 0.32-0.77 0.24-1.04-0.07-0.27-0.33-0.53-0.77-0.78-0.57-0.33-1.05-0.48-1.43-0.46-0.3 0.02-0.63 0.18-0.99 0.49m1.96 3.53c-0.58-0.1-1.16-0.24-1.75-0.4-0.8-0.21-1.35-0.28-1.64-0.21-0.3 0.08-0.52 0.23-0.65 0.47-0.16 0.27-0.19 0.55-0.11 0.83 0.1 0.28 0.33 0.53 0.7 0.74 0.38 0.22 0.79 0.33 1.23 0.33s0.8-0.09 1.09-0.28 0.56-0.5 0.81-0.93l0.32-0.55m10.66-4.6l3.38 2.11-7.58 12.15-3.38-2.11 7.58-12.15m6.04 3.82l3.31 2.22-7.97 11.9-3.31-2.22 7.97-11.9" display="block"/>
  </g>
  <metadata>
    <rdf:RDF>
      <cc:Work>
        <dc:format>image/svg+xml</dc:format>
        <dc:type rdf:resource="http://purl.org/dc/dcmitype/StillImage"/>
        <cc:license rdf:resource="http://creativecommons.org/licenses/publicdomain/"/>
        <dc:publisher>
          <cc:Agent rdf:about="http://openclipart.org/">
            <dc:title>Openclipart</dc:title>
          </cc:Agent>
        </dc:publisher>
        <dc:title>Volleyball</dc:title>
        <dc:date>2009-04-09T21:00:41</dc:date>
        <dc:description>A Volleyball by Angelo Gelmi</dc:description>
        <dc:source>http://openclipart.org/detail/24354/volleyball-by-anonymous-24354</dc:source>
        <dc:creator>
          <cc:Agent>
            <dc:title>Anonymous</dc:title>
          </cc:Agent>
        </dc:creator>
        <dc:subject>
          <rdf:Bag>
            <rdf:li>ball</rdf:li>
            <rdf:li>clip art</rdf:li>
            <rdf:li>clipart</rdf:li>
            <rdf:li>image</rdf:li>
            <rdf:li>media</rdf:li>
            <rdf:li>png</rdf:li>
            <rdf:li>public domain</rdf:li>
            <rdf:li>sport</rdf:li>
            <rdf:li>svg</rdf:li>
            <rdf:li>volleyball</rdf:li>
          </rdf:Bag>
        </dc:subject>
      </cc:Work>
      <cc:License rdf:about="http://creativecommons.org/licenses/publicdomain/">
        <cc:permits rdf:resource="http://creativecommons.org/ns#Reproduction"/>
        <cc:permits rdf:resource="http://creativecommons.org/ns#Distribution"/>
        <cc:permits rdf:resource="http://creativecommons.org/ns#DerivativeWorks"/>
      </cc:License>
    </rdf:RDF>
  </metadata>
</svg>
